<?xml version="1.0" encoding="UTF-8"?>
<svg xmlns="http://www.w3.org/2000/svg" version="1.1" viewBox="0 0 700 700">
  <defs>
    <style>
      .cls-1 {
        fill: #010101;
      }
    </style>
  </defs>
  <!-- Generator: Adobe Illustrator 28.7.2, SVG Export Plug-In . SVG Version: 1.2.0 Build 154)  -->
  <g>
    <g id="Layer_1">
      <path class="cls-1" d="M179.14,428.24c-.1-7.69.38-15.01,1.13-22.29.17-1.65-.14-2.75-1.63-3.25-2.51-.83-3.03-2.65-3.35-5.11-1.04-8-1.79-16.01-2.07-24.08-.1-2.93.73-4.7,3.87-4.23,4.18.62,6.51-1.32,8.31-5,2.39-4.89,5.18-9.58,8-14.24,1.28-2.12,1.21-3.87-.17-5.81-.78-1.1-1.45-2.31-2-3.55-1.26-2.8-.9-5.2,1.6-7.28,2.23-1.86,4.54-3.24,7.34-1.8,2.85,1.46,4.15,4.26,4.34,7.33.14,2.12-1.64,3.55-3.06,4.88-1.53,1.43-1.62,2.73-.69,4.58,2.49,4.99,5.04,9.97,7.07,15.15,1.65,4.21,4.22,6.53,8.7,6.24,3.76-.24,4.54,1.69,4.32,5.01-.23,3.34-.08,6.71-.03,10.07.02,1.18-.29,2.54,1.16,3.43,2.08-.67,1.51-2.54,1.54-3.99.11-5.74-.74-11.4-2.03-16.96-.55-2.36,0-4.03,1.41-5.8,4.45-5.62,8.71-11.4,13.25-16.95,1.93-2.36,2.72-4.79,2.64-7.83-.17-6.09.06-12.19-.08-18.28-.12-4.99.69-9.98-1.9-14.87-1.62-3.07-1.13-7.05-1-10.66.13-3.54-.45-6.93-2-10.12-.69-1.42-.99-2.69.1-4.14,9.74-12.88,17.44-27.01,24.77-41.38.33-.64.8-1.2,1.18-1.76,1.89.34,1.95,1.89,2.42,3.1,4.34,10.94,7.99,22.19,14.42,32.16,1.67,2.6,3.56,5.05,5.29,7.62.82,1.22,2.01,2.69,1.12,4.09-2.57,4.06-1.74,8.69-2.45,13.04-2.02,12.37-2.96,24.83-2.56,37.38.02.75.05,1.5-.02,2.24-.31,3.08.7,4.55,4.09,4.44,3.06-.1,4.94-.58,4.66-4.31-.27-3.71-.08-7.46-.16-11.18-.02-.97.03-2.26-.53-2.86-3.07-3.34-1.74-6.81-.71-10.4,2.63-9.17,4.89-18.42,6.11-27.92.52-4.05-.1-7.85-1.43-11.68-1.19-3.42.76-6.19,4.26-6.61,3.35-.4,4.97,1.08,5.23,4.56.29,3.93-1.64,7.87.08,11.76.52,1.18.23,2.77,1.67,3.57,1.74-.85,1.39-2.49,1.39-3.89.06-11.94.02-23.87.13-35.81.05-5.29-.68-10.39-2.74-15.28-.84-1.99-1.22-3.69.79-5.62,2.22-2.13.73-6.4-2.32-7.39-2.5-.81-1.78-2.75-1.51-4.3,1.13-6.34,2.2-12.71,3.74-18.95,3.19-12.94,4.17-26.17,5.53-39.36.26-2.5-1.01-2.97-3.05-2.89-6.36.26-12.42-1.07-18.18-3.8-1.65-.78-3.32-1.56-4.76-3.32,9.33-4.15,20.91-1.66,28.56-10.28,1.13,1.01.79,2.61.85,4.01.62,15.27,2.01,30.47,5.39,45.37,2,8.82,4.73,17.47,8.11,25.89,1.09,2.73,1.74,5.38.38,8.25-.88,1.86-.96,4.01-.29,5.84,1.34,3.71.57,7.3.17,10.99-.99,9.25-.33,18.52-.35,27.66,1.46.46,1.73-.43,1.95-1.04,3.7-9.9,6.54-20,7.27-30.64.26-3.87-.91-7.32-2.44-10.74-1.39-3.11-.51-5.58,2.33-7.31,2.71-1.65,5.78-1,7.92,1.56,1.31,1.56,2.03,3.54.78,5.13-4.33,5.5-3.31,11.58-2.42,17.74,1.58,10.95,3.83,21.73,8.1,31.97.53,1.27.73,3.32,2.71,2.97,2.09-.37,1.8-2.48,1.86-3.97.34-8.81.56-17.63.8-26.45.02-.87.24-1.95-.18-2.57-5.1-7.62-1.86-17.27-6.25-24.71.74-1.35,1.67-1.76,2.63-1.83,4.01-.32,5.46-2.74,4.45-6.31-2.35-8.29.07-15.91,2.65-23.56,5.74-17,8.7-34.55,9.99-52.43.1-1.41.18-2.89,2.03-2.98,1.89-.09,2,1.34,2.15,2.79,2.26,21.77,7.44,42.94,12.68,64.1.41,1.65.62,3.13-.16,4.67-1.74,3.45-1.72,7.16-1.64,10.92.05,2.52.99,3.75,3.51,3.48,3.78-.41,4.29,1.55,3.68,4.77-.78,4.13-1.41,8.31-1.8,12.5-.21,2.32-.65,4.4-2.12,6.19-1.04,1.26-.98,2.75-.98,4.25.02,21.14-.01,42.27.08,63.41.02,5.21.54,10.42.65,15.64.06,2.88,1.67,3.67,4.03,3.6,2.34-.07,4.37-.51,4.42-3.69.04-2.79-.17-5.2-3.19-6.36-2.06-.8-2.13-2.31-1.43-4.25,5.8-15.99,7.81-32.73,9.49-49.54.24-2.38-1.23-3.95-2.11-5.81-1.36-2.87-.6-7.35,1.51-8.22,3.7-1.52,8.6.45,9.78,3.75.58,1.62.38,2.99-.67,4.15-3.51,3.85-2.97,8.43-2.39,13.02,1.88,14.84,4.94,29.35,11.87,42.75.78,1.51.41,2.56-.84,3.52-3.8,2.92-2.24,6.96-2.06,10.68.05,1.11,1.04,1.6,2.1,1.75,1.22.16,2.47.62,3.64.45,6.77-1,10.13,2.74,12.88,8.41,4.09,8.47,8.81,16.63,13.21,24.96.79,1.5,1.9,2.92,1.93,4.74-5.63,3.4-6.17,4.64-5.17,11.89,6.57,1.45,8.14.67,10.55-5.4,2.24-5.64,4.25-11.39,6.68-16.94,1.65-3.76,2.14-7.17-.07-10.88-1.84-3.09-.84-5.74,2.09-7.64,2.52-1.62,6.24-.83,8.2,1.83,1.74,2.37,1.52,4.99.08,7.33-1.59,2.58-1.58,5.03-.53,7.78,2.74,7.18,5.78,14.23,8.97,21.22,1.42,3.11,3.65,4.54,6.98,4.29.37-.03.74,0,1.1,0,6.41.08,6.55.24,5.56,6.43-.96,6-2.05,11.98-2.87,17.99-.47,3.43-1.6,6.12-5.12,7.29-3.77,1.25-4.55,3.62-4,7.75,1.3,9.7,1.75,19.52,2.58,29.29,1.13,13.47,2.33,26.93,3.43,40.41.89,10.88,1.62,21.77,2.53,32.65.18,2.1-.71,3.1-2.35,4.11-5.38,3.32-11.25,4.03-17.34,3.69-9.27-.51-18.27-1.75-25.79-8.19-4.21-3.6-8.83-3.47-13.59-.49-6.08,3.8-12.59,6.46-19.79,7.53-5.91.88-11.82.58-16.89-2.05-6.92-3.6-14.19-3.57-21.45-4.1-18.97-1.36-37.99-.99-56.99-.74-13.56.18-27.15.63-40.5,3.89-5.06,1.24-10.44,1.37-15.72,1.05-3.21-.2-6.28-1.03-8.95-3-7.82-5.79-16.82-4.43-25.56-4.08-1.7.07-3.33,1.94-5,2.96-11.97,7.31-24.3,8.4-37.07,2.24-2.85-1.38-4.19-3.47-4.18-6.75.08-17.14,1.25-34.24,2.13-51.35.37-7.19.54-14.4.86-21.6.19-4.34.47-8.67.72-13.37M276.97,348.79c-1.17,2.83-1.87,5.45,1.32,7.65,2.25,1.55,4.17,3.54,2.93,6.82-.15.4-.03,1.07.22,1.44,4.3,6.16,8.08,12.85,15.53,15.84,3.19,1.28,6.42,2.43,9.59,3.77,6.31,2.66,7.55,5.2,6.62,12.14-1.43,10.73-4.19,21.13-7.22,31.47-.7,2.38-.67,4.16,2,5.02,1.87.6,2.12,1.92,2.04,3.78-.21,5.34-.95,10.62-1.57,15.92-1.86,16-3.75,31.99-6.81,47.81-.93,4.83-2.68,9.03-8.29,10.08-1.32.25-2.78.96-3.59,2.55,1.5,2.02,3.69,2.15,5.87,2.34,4.07.36,7.97-.88,11.94-1.29,6.3-.66,7.57-1.76,8.48-8,2.45-16.65,5.15-33.28,9.17-49.63.7-2.86,1.23-6.01,4.02-9.28,3.81,22.88,3.19,44.93,1.07,67.17,1.87.68,3.84.3,5.77.42,2.48.16,4-.45,4.64-3.37,2.18-10.04,3.7-20.19,4.67-30.38.96-10.12.91-20.34,1.74-30.47.35-4.3-.38-9,1.63-12.82,1.88-3.58,1.77-7.1,1.91-10.78.25-6.73-.51-13.39-1.15-20.06-.14-1.51-.76-3.22,1.04-4.56.4.68.97,1.26,1.08,1.92,1.07,6.36,2.32,12.72,1.28,19.22-.28,1.76-.16,3.35.49,5.07,1.8,4.73,4.04,9.45,4.83,14.39.98,6.14,3.36,11.09,8.05,14.92,1.87,1.53,2.27,3.17,1.01,5.16-4.24,6.69-4.26,14.12-3.58,21.61.21,2.25-.27,5.27,2.01,6.46,4.9,2.55,5.61,7.57,7.52,11.86,1.14,2.56-.53,4.34-3.27,3.65-1.47-.37-2.93-.61-4.36-.33-2.96.58-4.19,2.54-4.28,5.6-.08,2.96,1.59,3.5,3.92,3.68,9.3.75,18.59,1.63,27.9,2.27,2.04.14,4.9.58,5.17-2.68.25-2.99-.63-5.58-3.88-6.82-4.12-1.57-9.27-10.78-7.23-14.65,1.89-3.58.97-6.28.24-9.45-.56-2.46-.04-4.14,3.03-3.93,1.29.09,2.83-.78,2.45-2.14-1.3-4.65,1.51-8.25,2.96-12.04,1.56-4.09,1.49-5.45-2.56-7.07-2.46-.98-5.29-.71-8.34-2.68,5.46-2.82,7.72-7.47,8.64-12.88,2.05.19,3.73.47,5.42.49,3.93.07,6.61-2.2,7.53-6.2.91-3.99-.9-7.72-4.62-9.5-3.31-1.58-7.23-.98-9.08,2.32-1.93,3.43-3.61,2.68-6.41,1.38-3.08-1.43-4.05-3.1-2.96-6.32.57-1.7.37-3.61-1.21-4.74-1.57-1.13-3.2-.16-4.37.86-3.8,3.31-7.28,6.93-5.89,12.69.35,1.47-.13,2.45-.99,3.34-3.58,3.74-3.61,7.9-1.59,12.37.33.73.98,1.54,0,2.51-.48-.2-1.07-.35-1.56-.67-4.5-2.9-6.24-9.34-4.08-15.3,1.27-3.49,2.23-7.47.1-10.37-1.88-2.58-1.81-4.81-1.81-7.53,0-5.31,1.65-10.53.39-15.91-1.75-7.48-3.23-15.02-4.82-22.53-.72-3.4-2.55-5.8-5.81-7.14-1.92-.79-3.79-1.78-5.53-2.92-5.17-3.38-5.87-6.59-2.71-11.64,3.13-5.01,2.27-9.46-2.58-13.32-4.86-3.87-9.49-2.57-11.28,3.49-1.22,4.14-2.07,8.52-.66,12.81,1.08,3.29-.7,4.66-3.2,5.52-1.35.47-2.92.63-4.34.48-3.32-.36-6.58-.35-9.84.51-2.02.54-4.08.63-6.19.25-8.61-1.57-13.62-7.85-18.27-14.46-2.32-3.3-3.84-7.21-8.03-9.87,1.22,2.95-2.94,1.78-2.27,4.68Z"/>
    </g>
  </g>
</svg>